name analog
datacolumns 19
datarows 59
range 0.3335000000000001 0.36250000000000016
endheader
time	ground_force_vx	ground_force_vy	ground_force_vz	ground_force_px	ground_force_py	ground_force_pz	l_ground_force_vx	l_ground_force_vy	l_ground_force_vz	l_ground_force_px	l_ground_force_py	l_ground_force_pz	ground_torque_x	ground_torque_y	ground_torque_z	l_ground_torque_x	l_ground_torque_y	l_ground_torque_z
0.3335000000000001	-0.0	-0.0	-0.0	8.810574531555176	-12.724400520324709	-837.2828979492188	-0.0	-0.0	-0.0	-0.0	-0.0	-0.0	-0.0	-0.0	-0.0	-0.0	-0.0	-0.0
0.3340000000000001	-0.0	-0.0	-0.0	9.246502876281738	-13.830892562866213	-839.404052734375	-0.0	-0.0	-0.0	-0.0	-0.0	-0.0	-0.0	-0.0	-0.0	-0.0	-0.0	-0.0
0.3345000000000001	-0.0	-0.0	-0.0	10.647749900817873	-14.88975429534912	-841.6905517578125	-0.0	-0.0	-0.0	-0.0	-0.0	-0.0	-0.0	-0.0	-0.0	-0.0	-0.0	-0.0
0.3350000000000001	-0.0	-0.0	-0.0	11.167316436767578	-14.265460014343262	-840.1334838867188	-0.0	-0.0	-0.0	-0.0	-0.0	-0.0	-0.0	-0.0	-0.0	-0.0	-0.0	-0.0
0.3355000000000001	-0.0	-0.0	-0.0	10.70526123046875	-14.36612033843994	-841.274658203125	-0.0	-0.0	-0.0	-0.0	-0.0	-0.0	-0.0	-0.0	-0.0	-0.0	-0.0	-0.0
0.3360000000000001	-0.0	-0.0	-0.0	10.616050720214844	-13.924487113952637	-840.9859619140625	-0.0	-0.0	-0.0	-0.0	-0.0	-0.0	-0.0	-0.0	-0.0	-0.0	-0.0	-0.0
0.3365000000000001	-0.0	-0.0	-0.0	10.619580268859863	-13.636951446533203	-842.0599975585938	-0.0	-0.0	-0.0	-0.0	-0.0	-0.0	-0.0	-0.0	-0.0	-0.0	-0.0	-0.0
0.3370000000000001	-0.0	-0.0	-0.0	10.473943710327148	-13.547821044921877	-841.5621337890625	-0.0	-0.0	-0.0	-0.0	-0.0	-0.0	-0.0	-0.0	-0.0	-0.0	-0.0	-0.0
0.3375000000000001	-0.0	-0.0	-0.0	9.601259231567385	-13.19405746459961	-842.81982421875	-0.0	-0.0	-0.0	-0.0	-0.0	-0.0	-0.0	-0.0	-0.0	-0.0	-0.0	-0.0
0.3380000000000001	-0.0	-0.0	-0.0	8.385787963867188	-12.97690200805664	-842.1146240234375	-0.0	-0.0	-0.0	-0.0	-0.0	-0.0	-0.0	-0.0	-0.0	-0.0	-0.0	-0.0
0.3385000000000001	-0.0	-0.0	-0.0	6.46128511428833	-12.319042205810549	-839.8619384765625	-0.0	-0.0	-0.0	-0.0	-0.0	-0.0	-0.0	-0.0	-0.0	-0.0	-0.0	-0.0
0.3390000000000001	-0.0	-0.0	-0.0	6.0458269119262695	-10.32030963897705	-840.1405029296875	-0.0	-0.0	-0.0	-0.0	-0.0	-0.0	-0.0	-0.0	-0.0	-0.0	-0.0	-0.0
0.3395000000000001	-0.0	-0.0	-0.0	5.493802547454834	-7.880691051483154	-837.8113403320312	-0.0	-0.0	-0.0	-0.0	-0.0	-0.0	-0.0	-0.0	-0.0	-0.0	-0.0	-0.0
0.3400000000000001	-0.0	-0.0	-0.0	4.496393203735352	-5.526084899902344	-837.1748046875	-0.0	-0.0	-0.0	-0.0	-0.0	-0.0	-0.0	-0.0	-0.0	-0.0	-0.0	-0.0
0.3405000000000001	-0.0	-0.0	-0.0	3.621303796768189	-3.599904775619507	-836.2623901367188	-0.0	-0.0	-0.0	-0.0	-0.0	-0.0	-0.0	-0.0	-0.0	-0.0	-0.0	-0.0
0.3410000000000001	-0.0	-0.0	-0.0	2.2298707962036133	-1.889290452003479	-835.6932983398438	-0.0	-0.0	-0.0	-0.0	-0.0	-0.0	-0.0	-0.0	-0.0	-0.0	-0.0	-0.0
0.3415000000000001	-0.0	-0.0	-0.0	0.6603101491928101	-0.6241030693054199	-832.8684692382812	-0.0	-0.0	-0.0	-0.0	-0.0	-0.0	-0.0	-0.0	-0.0	-0.0	-0.0	-0.0
0.3420000000000001	-0.0	-0.0	-0.0	-0.3573710024356842	-0.0530554503202438	-830.04638671875	-0.0	-0.0	-0.0	-0.0	-0.0	-0.0	-0.0	-0.0	-0.0	-0.0	-0.0	-0.0
0.3425000000000001	-0.0	-0.0	-0.0	-0.5352630615234375	0.6966803669929504	-828.5601806640625	-0.0	-0.0	-0.0	-0.0	-0.0	-0.0	-0.0	-0.0	-0.0	-0.0	-0.0	-0.0
0.3430000000000001	-0.0	-0.0	-0.0	0.6074095964431763	0.8362709879875183	-827.079833984375	-0.0	-0.0	-0.0	-0.0	-0.0	-0.0	-0.0	-0.0	-0.0	-0.0	-0.0	-0.0
0.3435000000000001	-0.0	-0.0	-0.0	1.301163673400879	1.1233701705932615	-827.927001953125	-0.0	-0.0	-0.0	-0.0	-0.0	-0.0	-0.0	-0.0	-0.0	-0.0	-0.0	-0.0
0.3440000000000001	-0.0	-0.0	-0.0	0.927384614944458	1.4220428466796875	-828.0015258789062	-0.0	-0.0	-0.0	-0.0	-0.0	-0.0	-0.0	-0.0	-0.0	-0.0	-0.0	-0.0
0.3445000000000001	-0.0	-0.0	-0.0	1.62221360206604	2.2493910789489746	-825.669677734375	-0.0	-0.0	-0.0	-0.0	-0.0	-0.0	-0.0	-0.0	-0.0	-0.0	-0.0	-0.0
0.3450000000000001	-0.0	-0.0	-0.0	1.5923383235931396	4.472701072692871	-823.6156005859375	-0.0	-0.0	-0.0	-0.0	-0.0	-0.0	-0.0	-0.0	-0.0	-0.0	-0.0	-0.0
0.3455000000000001	-0.0	-0.0	-0.0	-0.5862846374511719	4.940326690673828	-820.714599609375	-0.0	-0.0	-0.0	-0.0	-0.0	-0.0	-0.0	-0.0	-0.0	-0.0	-0.0	-0.0
0.3460000000000001	-0.0	-0.0	-0.0	-2.959707498550415	3.8867788314819336	-819.0242919921875	-0.0	-0.0	-0.0	-0.0	-0.0	-0.0	-0.0	-0.0	-0.0	-0.0	-0.0	-0.0
0.3465000000000001	-0.0	-0.0	-0.0	-4.972548961639404	2.3522722721099854	-819.1624755859375	-0.0	-0.0	-0.0	-0.0	-0.0	-0.0	-0.0	-0.0	-0.0	-0.0	-0.0	-0.0
0.3470000000000001	-0.0	-0.0	-0.0	-6.101151466369629	0.5152630805969238	-817.7494506835938	-0.0	-0.0	-0.0	-0.0	-0.0	-0.0	-0.0	-0.0	-0.0	-0.0	-0.0	-0.0
0.3475000000000001	-0.0	-0.0	-0.0	-5.922662734985352	-0.3414384722709656	-819.5150756835938	-0.0	-0.0	-0.0	-0.0	-0.0	-0.0	-0.0	-0.0	-0.0	-0.0	-0.0	-0.0
0.3480000000000001	-0.0	-0.0	-0.0	-5.491397857666016	-1.0349041223526	-819.9268188476562	-0.0	-0.0	-0.0	-0.0	-0.0	-0.0	-0.0	-0.0	-0.0	-0.0	-0.0	-0.0
0.3485000000000001	-0.0	-0.0	-0.0	-4.6442461013793945	-0.8021736145019531	-818.88720703125	-0.0	-0.0	-0.0	-0.0	-0.0	-0.0	-0.0	-0.0	-0.0	-0.0	-0.0	-0.0
0.3490000000000001	-0.0	-0.0	-0.0	-4.233123779296875	-0.8567872047424316	-816.1763305664062	-0.0	-0.0	-0.0	-0.0	-0.0	-0.0	-0.0	-0.0	-0.0	-0.0	-0.0	-0.0
0.3495000000000001	-0.0	-0.0	-0.0	-3.5826215744018555	-0.3504589200019836	-815.0028076171875	-0.0	-0.0	-0.0	-0.0	-0.0	-0.0	-0.0	-0.0	-0.0	-0.0	-0.0	-0.0
0.3500000000000001	-0.0	-0.0	-0.0	-3.1223678588867188	-0.0891304016113281	-812.0968627929688	-0.0	-0.0	-0.0	-0.0	-0.0	-0.0	-0.0	-0.0	-0.0	-0.0	-0.0	-0.0
0.3505000000000001	-0.0	-0.0	-0.0	-2.8615310192108154	0.301685631275177	-809.81396484375	-0.0	-0.0	-0.0	-0.0	-0.0	-0.0	-0.0	-0.0	-0.0	-0.0	-0.0	-0.0
0.3510000000000001	-0.0	-0.0	-0.0	-2.2788631916046143	0.1098241806030273	-807.5584716796875	-0.0	-0.0	-0.0	-0.0	-0.0	-0.0	-0.0	-0.0	-0.0	-0.0	-0.0	-0.0
0.35150000000000015	-0.0	-0.0	-0.0	-1.283128023147583	-0.2332410216331482	-806.1217041015625	-0.0	-0.0	-0.0	-0.0	-0.0	-0.0	-0.0	-0.0	-0.0	-0.0	-0.0	-0.0
0.3520000000000001	-0.0	-0.0	-0.0	-0.947211980819702	-0.9253770112991332	-804.4088745117188	-0.0	-0.0	-0.0	-0.0	-0.0	-0.0	-0.0	-0.0	-0.0	-0.0	-0.0	-0.0
0.35250000000000015	-0.0	-0.0	-0.0	-0.356842041015625	-1.515216827392578	-800.895751953125	-0.0	-0.0	-0.0	-0.0	-0.0	-0.0	-0.0	-0.0	-0.0	-0.0	-0.0	-0.0
0.3530000000000001	-0.0	-0.0	-0.0	0.3695104122161865	-1.6509333848953247	-800.221435546875	-0.0	-0.0	-0.0	-0.0	-0.0	-0.0	-0.0	-0.0	-0.0	-0.0	-0.0	-0.0
0.35350000000000015	-0.0	-0.0	-0.0	0.3353962302207947	-1.8254611492156985	-799.5501098632812	-0.0	-0.0	-0.0	-0.0	-0.0	-0.0	-0.0	-0.0	-0.0	-0.0	-0.0	-0.0
0.3540000000000001	-0.0	-0.0	-0.0	-0.1662132143974304	-1.428901195526123	-796.2869262695312	-0.0	-0.0	-0.0	-0.0	-0.0	-0.0	-0.0	-0.0	-0.0	-0.0	-0.0	-0.0
0.35450000000000015	-0.0	-0.0	-0.0	-1.0607492923736572	-1.3032574653625488	-792.0964965820312	-0.0	-0.0	-0.0	-0.0	-0.0	-0.0	-0.0	-0.0	-0.0	-0.0	-0.0	-0.0
0.3550000000000001	-0.0	-0.0	-0.0	-3.156029462814331	-0.938358187675476	-788.4308471679688	-0.0	-0.0	-0.0	-0.0	-0.0	-0.0	-0.0	-0.0	-0.0	-0.0	-0.0	-0.0
0.35550000000000015	-0.0	-0.0	-0.0	-4.605353355407715	-0.6354721188545227	-786.8848876953125	-0.0	-0.0	-0.0	-0.0	-0.0	-0.0	-0.0	-0.0	-0.0	-0.0	-0.0	-0.0
0.3560000000000001	-0.0	-0.0	-0.0	-6.333946228027344	-0.1895884573459625	-783.175537109375	-0.0	-0.0	-0.0	-0.0	-0.0	-0.0	-0.0	-0.0	-0.0	-0.0	-0.0	-0.0
0.35650000000000015	-0.0	-0.0	-0.0	-7.281857490539551	-0.0222936198115348	-781.18994140625	-0.0	-0.0	-0.0	-0.0	-0.0	-0.0	-0.0	-0.0	-0.0	-0.0	-0.0	-0.0
0.3570000000000001	-0.0	-0.0	-0.0	-8.608485221862793	-0.5687808990478516	-780.263427734375	-0.0	-0.0	-0.0	-0.0	-0.0	-0.0	-0.0	-0.0	-0.0	-0.0	-0.0	-0.0
0.35750000000000015	-0.0	-0.0	-0.0	-10.203292846679688	-1.1373684406280518	-778.0131225585938	-0.0	-0.0	-0.0	-0.0	-0.0	-0.0	-0.0	-0.0	-0.0	-0.0	-0.0	-0.0
0.3580000000000001	-0.0	-0.0	-0.0	-12.020662307739258	-0.9699738621711732	-774.6551513671875	-0.0	-0.0	-0.0	-0.0	-0.0	-0.0	-0.0	-0.0	-0.0	-0.0	-0.0	-0.0
0.35850000000000015	-0.0	-0.0	-0.0	-13.682357788085938	-1.2604875564575195	-772.2733154296875	-0.0	-0.0	-0.0	-0.0	-0.0	-0.0	-0.0	-0.0	-0.0	-0.0	-0.0	-0.0
0.3590000000000001	-0.0	-0.0	-0.0	-14.597450256347656	-1.1356520652770996	-771.9721069335938	-0.0	-0.0	-0.0	-0.0	-0.0	-0.0	-0.0	-0.0	-0.0	-0.0	-0.0	-0.0
0.35950000000000015	-0.0	-0.0	-0.0	-15.367406845092772	-1.4162888526916504	-772.7965698242188	-0.0	-0.0	-0.0	-0.0	-0.0	-0.0	-0.0	-0.0	-0.0	-0.0	-0.0	-0.0
0.3600000000000001	-0.0	-0.0	-0.0	-15.69147491455078	-1.388986587524414	-772.0513916015625	-0.0	-0.0	-0.0	-0.0	-0.0	-0.0	-0.0	-0.0	-0.0	-0.0	-0.0	-0.0
0.36050000000000015	-0.0	-0.0	-0.0	-15.409912109375	-1.829578876495361	-772.8698120117188	-0.0	-0.0	-0.0	-0.0	-0.0	-0.0	-0.0	-0.0	-0.0	-0.0	-0.0	-0.0
0.3610000000000001	-0.0	-0.0	-0.0	-15.254997253417969	-2.3829002380371094	-773.2406616210938	-0.0	-0.0	-0.0	-0.0	-0.0	-0.0	-0.0	-0.0	-0.0	-0.0	-0.0	-0.0
0.36150000000000015	-0.0	-0.0	-0.0	-14.767327308654783	-2.5521039962768555	-775.5831298828125	-0.0	-0.0	-0.0	-0.0	-0.0	-0.0	-0.0	-0.0	-0.0	-0.0	-0.0	-0.0
0.3620000000000001	-0.0	-0.0	-0.0	-14.330252647399902	-2.552171468734741	-775.772705078125	-0.0	-0.0	-0.0	-0.0	-0.0	-0.0	-0.0	-0.0	-0.0	-0.0	-0.0	-0.0
0.36250000000000016	-0.0	-0.0	-0.0	-13.974830627441406	-1.904271364212036	-775.7120361328125	-0.0	-0.0	-0.0	-0.0	-0.0	-0.0	-0.0	-0.0	-0.0	-0.0	-0.0	-0.0
